#define temperature_width 14
#define temperature_height 14
static unsigned char temperature_bits[] = {
   0xe0, 0x01, 0xe0, 0x01, 0xe0, 0x01, 0xe0, 0x01, 0xe0, 0x01, 0xe0, 0x01,
   0xe0, 0x01, 0xe0, 0x01, 0xf0, 0x03, 0xf8, 0x07, 0xf8, 0x07, 0xf8, 0x07,
   0xf0, 0x03, 0xe0, 0x01 };
